<?xml version="1.0" standalone="no"?>
<!DOCTYPE svg PUBLIC "-//W3C//DTD SVG 20010904//EN"
 "http://www.w3.org/TR/2001/REC-SVG-20010904/DTD/svg10.dtd">
<svg version="1.0" xmlns="http://www.w3.org/2000/svg"
 width="100.000000pt" height="100.000000pt" viewBox="0 0 100.000000 100.000000"
 preserveAspectRatio="xMidYMid meet">

<g transform="translate(0.000000,100.000000) scale(0.100000,-0.100000)"
fill="#000000" stroke="none">
<path d="M401 814 c-159 -43 -311 -196 -311 -314 0 -93 112 -230 237 -292 64
-31 74 -33 173 -33 103 0 108 1 184 38 134 67 232 188 230 287 -1 61 -40 134
-105 196 -124 117 -263 157 -408 118z m242 -97 c96 -44 197 -155 197 -217 0
-62 -91 -167 -188 -216 -46 -24 -73 -30 -140 -33 -77 -3 -88 -1 -145 28 -117
57 -197 148 -197 221 0 86 128 208 255 241 56 15 158 4 218 -24z"/>
<path d="M420 638 c-50 -34 -72 -71 -78 -126 -14 -152 166 -236 274 -128 57
57 64 146 15 214 -44 62 -149 82 -211 40z m140 -78 c45 -45 33 -111 -24 -138
-82 -40 -157 68 -94 135 28 30 89 32 118 3z"/>
</g>
</svg>
