<?xml version="1.0" standalone="no"?>
<!DOCTYPE svg PUBLIC "-//W3C//DTD SVG 20010904//EN"
 "http://www.w3.org/TR/2001/REC-SVG-20010904/DTD/svg10.dtd">
<svg version="1.0" xmlns="http://www.w3.org/2000/svg"
 width="200.000000pt" height="200.000000pt" viewBox="0 0 200.000000 200.000000"
 preserveAspectRatio="xMidYMid meet">

<g transform="translate(0.000000,200.000000) scale(0.100000,-0.100000)"
fill="#000000" stroke="none">
<path d="M482 1416 l-37 -34 -3 -354 -3 -354 23 -34 c13 -19 35 -40 48 -47 36
-18 944 -18 980 0 13 7 35 28 48 47 l23 34 -3 354 -3 354 -37 34 -38 34 -480
0 -480 0 -38 -34z m958 -276 l0 -190 -440 0 -440 0 0 190 0 190 440 0 440 0 0
-190z m-520 -330 c20 -20 26 -56 12 -76 -18 -27 -56 -34 -189 -34 -126 0 -141
2 -161 20 -27 26 -28 64 -2 90 18 18 33 20 170 20 137 0 152 -2 170 -20z m500
0 c11 -11 20 -31 20 -45 0 -29 -36 -65 -65 -65 -29 0 -65 36 -65 65 0 32 33
65 65 65 14 0 34 -9 45 -20z"/>
</g>
</svg>
