<?xml version="1.0" standalone="no"?>
<!DOCTYPE svg PUBLIC "-//W3C//DTD SVG 20010904//EN"
 "http://www.w3.org/TR/2001/REC-SVG-20010904/DTD/svg10.dtd">
<svg version="1.0" xmlns="http://www.w3.org/2000/svg"
 width="40.000000pt" height="40.000000pt" viewBox="0 0 40.000000 40.000000"
 preserveAspectRatio="xMidYMid meet">

<g transform="translate(0.000000,40.000000) scale(0.100000,-0.100000)"
fill="#000000" stroke="none">
<path d="M46 345 c-23 -24 -24 -266 0 -289 23 -24 265 -23 289 0 22 22 18 139
-5 139 -11 0 -16 -14 -18 -57 l-3 -58 -119 0 -120 0 0 120 0 119 108 3 c87 2
107 6 107 18 0 23 -216 27 -239 5z"/>
<path d="M270 245 c-41 -41 -78 -75 -82 -75 -4 0 -23 17 -42 38 -28 30 -37 35
-48 24 -10 -10 -3 -22 40 -65 l52 -52 90 90 c50 49 89 94 87 99 -8 23 -27 12
-97 -59z"/>
</g>
</svg>
