<?xml version="1.0" standalone="no"?>
<!DOCTYPE svg PUBLIC "-//W3C//DTD SVG 20010904//EN"
 "http://www.w3.org/TR/2001/REC-SVG-20010904/DTD/svg10.dtd">
<svg version="1.0" xmlns="http://www.w3.org/2000/svg"
 width="30" height="30" viewBox="0 0 200.000000 200.000000"
 preserveAspectRatio="xMidYMid meet">

<g transform="translate(0.000000,200.000000) scale(0.100000,-0.100000)"
fill="#000000" stroke="none">
<path d="M456 1398 c-21 -30 -20 -54 4 -78 19 -19 33 -20 540 -20 507 0 521 1
540 20 24 24 25 48 4 78 l-15 22 -529 0 -529 0 -15 -22z"/>
<path d="M456 1148 c-21 -30 -20 -54 4 -78 19 -19 33 -20 540 -20 507 0 521 1
540 20 24 24 25 48 4 78 l-15 22 -529 0 -529 0 -15 -22z"/>
<path d="M456 898 c-21 -30 -20 -54 4 -78 19 -19 33 -20 540 -20 507 0 521 1
540 20 24 24 25 48 4 78 l-15 22 -529 0 -529 0 -15 -22z"/>
<path d="M456 648 c-21 -30 -20 -54 4 -78 19 -19 33 -20 353 -20 311 0 335 1
350 18 21 23 22 66 1 86 -13 14 -60 16 -354 16 -339 0 -339 0 -354 -22z"/>
</g>
</svg>
