<?xml version="1.0" standalone="no"?>
<!DOCTYPE svg PUBLIC "-//W3C//DTD SVG 20010904//EN"
 "http://www.w3.org/TR/2001/REC-SVG-20010904/DTD/svg10.dtd">
<svg version="1.0" xmlns="http://www.w3.org/2000/svg"
 width="40.000000pt" height="40.000000pt" viewBox="0 0 40.000000 40.000000"
 preserveAspectRatio="xMidYMid meet">

<g transform="translate(0.000000,40.000000) scale(0.100000,-0.100000)"
fill="#000000" stroke="none">
<path d="M5 309 c-14 -22 14 -30 101 -27 71 2 89 6 89 18 0 12 -18 16 -92 18
-60 2 -94 -1 -98 -9z"/>
<path d="M16 224 c-21 -21 -21 -107 0 -128 13 -13 44 -16 184 -16 195 0 200 2
200 80 0 78 -5 80 -200 80 -140 0 -171 -3 -184 -16z m344 -64 l0 -40 -160 0
-160 0 0 40 0 40 160 0 160 0 0 -40z"/>
</g>
</svg>
