<?xml version="1.0" standalone="no"?>
<!DOCTYPE svg PUBLIC "-//W3C//DTD SVG 20010904//EN"
 "http://www.w3.org/TR/2001/REC-SVG-20010904/DTD/svg10.dtd">
<svg version="1.0" xmlns="http://www.w3.org/2000/svg"
 width="40.000000pt" height="40.000000pt" viewBox="0 0 40.000000 40.000000"
 preserveAspectRatio="xMidYMid meet">

<g transform="translate(0.000000,40.000000) scale(0.100000,-0.100000)"
fill="#000000" stroke="none">
<path d="M113 297 c-108 -110 -120 -164 -52 -242 34 -38 77 -51 131 -40 42 10
198 158 198 190 0 27 -148 175 -176 175 -12 0 -52 -32 -101 -83z m180 -25 l68
-68 -80 -77 c-74 -72 -81 -77 -123 -77 -35 0 -49 5 -70 28 -31 33 -40 66 -27
101 11 29 137 161 154 161 6 0 41 -31 78 -68z"/>
<path d="M134 202 c-25 -16 -34 -50 -23 -76 21 -46 77 -46 98 0 16 37 -11 84
-49 84 -8 0 -20 -4 -26 -8z m46 -52 c0 -13 -7 -20 -20 -20 -13 0 -20 7 -20 20
0 13 7 20 20 20 13 0 20 -7 20 -20z"/>
</g>
</svg>
