<?xml version="1.0" standalone="no"?>
<!DOCTYPE svg PUBLIC "-//W3C//DTD SVG 20010904//EN"
 "http://www.w3.org/TR/2001/REC-SVG-20010904/DTD/svg10.dtd">
<svg version="1.0" xmlns="http://www.w3.org/2000/svg"
 width="125.000000pt" height="125.000000pt" viewBox="0 0 125.000000 125.000000"
 preserveAspectRatio="xMidYMid meet">

<g transform="translate(0.000000,125.000000) scale(0.100000,-0.100000)"
fill="#000000" stroke="none">
<path d="M227 1032 c-36 -40 -24 -59 158 -242 l175 -175 -175 -175 c-184 -184
-195 -200 -155 -240 39 -39 56 -28 239 155 l176 174 176 -174 c183 -183 200
-194 239 -155 40 40 29 56 -155 240 l-175 175 175 175 c184 185 198 206 157
243 -41 37 -59 25 -242 -158 l-175 -175 -175 175 c-184 184 -206 198 -243 157z"/>
</g>
</svg>
