<?xml version="1.0" standalone="no"?>
<!DOCTYPE svg PUBLIC "-//W3C//DTD SVG 20010904//EN"
 "http://www.w3.org/TR/2001/REC-SVG-20010904/DTD/svg10.dtd">
<svg version="1.0" xmlns="http://www.w3.org/2000/svg"
 width="40.000000pt" height="40.000000pt" viewBox="0 0 40.000000 40.000000"
 preserveAspectRatio="xMidYMid meet">

<g transform="translate(0.000000,40.000000) scale(0.100000,-0.100000)"
fill="#000000" stroke="none">
<path d="M142 393 c-40 -8 -119 -92 -132 -142 -20 -74 -6 -125 48 -181 54 -55
110 -76 180 -65 59 9 135 81 152 144 20 74 6 125 -48 181 -59 61 -116 79 -200
63z m138 -55 c51 -35 73 -71 78 -130 3 -44 0 -59 -20 -87 -36 -52 -71 -74
-130 -79 -44 -3 -59 0 -87 20 -48 32 -72 68 -78 116 -7 54 1 83 34 123 52 61
143 78 203 37z"/>
<path d="M187 334 c-4 -4 -7 -37 -7 -74 0 -62 2 -68 35 -100 27 -26 38 -31 47
-22 9 9 6 18 -15 39 -21 23 -26 39 -29 92 -3 59 -14 82 -31 65z"/>
</g>
</svg>
