<?xml version="1.0" standalone="no"?>
<!DOCTYPE svg PUBLIC "-//W3C//DTD SVG 20010904//EN"
 "http://www.w3.org/TR/2001/REC-SVG-20010904/DTD/svg10.dtd">
<svg version="1.0" xmlns="http://www.w3.org/2000/svg"
 width="40.000000pt" height="40.000000pt" viewBox="0 0 40.000000 40.000000"
 preserveAspectRatio="xMidYMid meet">

<g transform="translate(0.000000,40.000000) scale(0.100000,-0.100000)"
fill="#000000" stroke="none">
<path d="M170 373 c-56 -21 -81 -84 -56 -135 15 -30 15 -33 -1 -42 -60 -34
-107 -130 -78 -160 14 -13 42 -16 170 -16 140 0 155 2 164 19 21 38 -25 126
-82 157 -16 9 -16 12 -1 42 19 39 12 81 -19 111 -24 22 -72 34 -97 24z m72
-50 c38 -34 11 -103 -40 -103 -54 0 -81 62 -45 102 20 22 61 23 85 1z m35
-164 c31 -19 63 -64 63 -89 0 -6 -49 -10 -140 -10 -98 0 -140 3 -140 11 0 7 9
26 20 44 39 63 132 84 197 44z"/>
</g>
</svg>
