<?xml version="1.0" standalone="no"?>
<!DOCTYPE svg PUBLIC "-//W3C//DTD SVG 20010904//EN"
 "http://www.w3.org/TR/2001/REC-SVG-20010904/DTD/svg10.dtd">
<svg version="1.0" xmlns="http://www.w3.org/2000/svg"
 width="223.000000pt" height="230.000000pt" viewBox="0 0 223.000000 230.000000"
 preserveAspectRatio="xMidYMid meet">

<g transform="translate(0.000000,230.000000) scale(0.100000,-0.100000)"
fill="#000000" stroke="none">
<path d="M498 1494 c-53 -28 -73 -105 -43 -164 22 -42 53 -60 105 -60 52 0 83
18 105 60 57 110 -59 223 -167 164z"/>
<path d="M825 1486 c-19 -29 -11 -72 15 -86 11 -6 176 -10 413 -10 369 0 395
1 410 18 22 24 21 65 -1 85 -17 15 -61 17 -420 17 l-402 0 -15 -24z"/>
<path d="M824 1235 c-17 -26 -13 -55 12 -80 13 -13 62 -15 318 -15 281 0 304
1 319 18 21 23 22 66 1 86 -13 14 -57 16 -324 16 l-310 0 -16 -25z"/>
<path d="M498 994 c-53 -28 -73 -105 -43 -164 22 -42 53 -60 105 -60 52 0 83
18 105 60 30 59 9 136 -47 166 -31 18 -87 17 -120 -2z"/>
<path d="M829 989 c-15 -15 -19 -28 -14 -47 12 -52 10 -52 435 -52 372 0 398
1 413 18 22 24 21 65 -1 85 -17 15 -60 17 -415 17 -389 0 -397 0 -418 -21z"/>
<path d="M825 736 c-19 -29 -11 -72 15 -86 11 -6 143 -10 318 -10 277 0 300 1
315 18 21 23 22 66 1 86 -13 14 -57 16 -324 16 l-310 0 -15 -24z"/>
</g>
</svg>
