<?xml version="1.0" standalone="no"?>
<!DOCTYPE svg PUBLIC "-//W3C//DTD SVG 20010904//EN"
 "http://www.w3.org/TR/2001/REC-SVG-20010904/DTD/svg10.dtd">
<svg version="1.0" xmlns="http://www.w3.org/2000/svg"
 width="200.000000pt" height="200.000000pt" viewBox="0 0 200.000000 200.000000"
 preserveAspectRatio="xMidYMid meet">

<g transform="translate(0.000000,200.000000) scale(0.100000,-0.100000)"
fill="#000000" stroke="none">
<path d="M551 1504 c-17 -14 -36 -42 -41 -62 -8 -25 -10 -168 -8 -429 3 -379
4 -392 24 -420 39 -53 39 -53 474 -53 435 0 435 0 474 53 19 26 21 44 24 205
3 201 -3 225 -54 230 -59 6 -64 -9 -64 -199 l0 -169 -380 0 -380 0 0 375 0
375 319 0 c307 0 319 1 345 21 30 23 33 45 10 77 l-15 22 -349 0 -348 0 -31
-26z"/>
<path d="M1233 1168 l-243 -242 -72 79 c-120 132 -145 155 -167 155 -27 0 -61
-34 -61 -60 0 -19 67 -100 202 -242 102 -109 82 -119 400 200 190 190 268 274
268 290 0 28 -34 62 -62 62 -15 0 -95 -73 -265 -242z"/>
</g>
</svg>
