<?xml version="1.0" standalone="no"?>
<!DOCTYPE svg PUBLIC "-//W3C//DTD SVG 20010904//EN"
 "http://www.w3.org/TR/2001/REC-SVG-20010904/DTD/svg10.dtd">
<svg version="1.0" xmlns="http://www.w3.org/2000/svg"
 width="40.000000pt" height="40.000000pt" viewBox="0 0 40.000000 40.000000"
 preserveAspectRatio="xMidYMid meet">

<g transform="translate(0.000000,40.000000) scale(0.100000,-0.100000)"
fill="#000000" stroke="none">
<path d="M142 360 c-19 -12 -40 -37 -49 -57 -14 -34 -14 -43 1 -96 20 -72 57
-146 85 -171 21 -19 21 -19 42 0 28 25 65 99 85 171 15 53 15 62 1 96 -17 40
-68 77 -107 77 -14 0 -40 -9 -58 -20z m98 -60 c24 -24 26 -57 3 -82 -33 -37
-103 -11 -103 39 0 28 33 63 60 63 11 0 29 -9 40 -20z"/>
</g>
</svg>
